<svg width="17" height="27" fill="none" xmlns="http://www.w3.org/2000/svg"><path d="M16.91 18.03c0 1.12-.3 2.15-.9 3.09-.6.94-1.49 1.69-2.67 2.25s-2.6.84-4.26.84v2.4H7.79v-2.46c-2.18-.18-3.96-.84-5.34-1.98C1.09 21.03.34 19.51.2 17.61h5.46c.06.64.27 1.18.63 1.62.38.44.88.74 1.5.9v-4.77c-.34-.1-.56-.17-.66-.21-1.46-.42-2.66-.84-3.6-1.26a6.897 6.897 0 01-2.4-1.92C.47 11.11.14 9.98.14 8.58c0-1.22.33-2.29.99-3.21.68-.92 1.6-1.62 2.76-2.1 1.16-.5 2.46-.77 3.9-.81V0h1.29v2.49c2.2.14 3.95.77 5.25 1.89 1.3 1.1 2.03 2.56 2.19 4.38h-5.55c-.08-.6-.28-1.09-.6-1.47-.32-.38-.75-.64-1.29-.78v4.68l.93.3c1.46.46 2.64.91 3.54 1.35.92.42 1.71 1.05 2.37 1.89.66.84.99 1.94.99 3.3zM5.63 8.37c0 .54.18 1 .54 1.38.38.36.92.69 1.62.99V6.39c-.68.04-1.21.23-1.59.57-.38.34-.57.81-.57 1.41zm3.45 11.91c.72-.02 1.29-.22 1.71-.6.42-.4.63-.91.63-1.53 0-.56-.2-1.02-.6-1.38-.4-.38-.98-.71-1.74-.99v4.5z" fill="#30D7BA"/></svg>