<svg width="34" height="41" fill="none" xmlns="http://www.w3.org/2000/svg"><path d="M.76 20.535c0 6.013 1.357 10.817 4.07 14.41 2.713 3.557 6.857 5.335 12.43 5.335 5.573 0 9.717-1.778 12.43-5.335 2.713-3.593 4.07-8.397 4.07-14.41 0-5.977-1.357-10.743-4.07-14.3-2.713-3.593-6.857-5.39-12.43-5.39-5.573 0-9.717 1.778-12.43 5.335C2.117 9.737.76 14.522.76 20.535zm20.955 0c0 2.603-.293 4.62-.88 6.05-.587 1.43-1.778 2.145-3.575 2.145-1.833 0-3.043-.715-3.63-2.145-.587-1.43-.88-3.447-.88-6.05 0-2.603.293-4.602.88-5.995.587-1.43 1.797-2.145 3.63-2.145 1.797 0 2.988.715 3.575 2.145.587 1.393.88 3.392.88 5.995z" fill="#30D7BA"/></svg>