<svg width="34" height="29" fill="none" xmlns="http://www.w3.org/2000/svg"><path d="M33.645 4.185a13.688 13.688 0 01-3.93 1.057 6.809 6.809 0 003.001-3.762 13.475 13.475 0 01-4.33 1.649A6.808 6.808 0 0023.398.97a6.823 6.823 0 00-6.824 6.83c0 .528.064 1.056.168 1.565A19.396 19.396 0 012.669 2.22a6.777 6.777 0 00-.929 3.446 6.83 6.83 0 003.042 5.688 6.884 6.884 0 01-3.086-.869v.084a6.827 6.827 0 005.472 6.7 7.22 7.22 0 01-1.797.233c-.445 0-.865-.044-1.29-.104a6.837 6.837 0 006.38 4.735 13.679 13.679 0 01-8.473 2.918c-.572 0-1.1-.02-1.649-.084a19.328 19.328 0 0010.483 3.062c12.552 0 19.42-10.399 19.42-19.425 0-.296 0-.592-.02-.888a14.7 14.7 0 003.423-3.53z" fill="#fff"/></svg>