<svg width="47" height="47" fill="none" xmlns="http://www.w3.org/2000/svg"><path d="M23.5 27.34c4.228 0 7.667-3.438 7.667-7.666 0-4.229-3.439-7.667-7.667-7.667s-7.667 3.438-7.667 7.667c0 4.228 3.439 7.666 7.667 7.666zm0-11.5a3.837 3.837 0 013.833 3.834 3.837 3.837 0 01-3.833 3.833 3.837 3.837 0 01-3.833-3.834A3.837 3.837 0 0123.5 15.84z" fill="#fff"/><path d="M22.389 42.317a1.913 1.913 0 002.223 0c.583-.412 14.277-10.3 14.222-22.643 0-8.455-6.88-15.334-15.334-15.334S8.167 11.22 8.167 19.664C8.11 32.017 21.806 41.905 22.389 42.317zM23.5 8.174c6.342 0 11.5 5.157 11.5 11.51.04 8.505-8.41 16.143-11.5 18.648-3.088-2.507-11.54-10.146-11.5-18.658 0-6.343 5.158-11.5 11.5-11.5z" fill="#fff"/></svg>