<svg width="61" height="61" fill="none" xmlns="http://www.w3.org/2000/svg"><path d="M30.5 26.99a3.51 3.51 0 110 7.02 3.51 3.51 0 010-7.02zM3.191 3.19C8.211-1.829 19.092.418 30.5 7.895 41.908.418 52.79-1.828 57.809 3.19c5.02 5.02 2.773 15.901-4.704 27.309 7.477 11.408 9.723 22.29 4.704 27.309-5.02 5.02-15.901 2.773-27.309-4.704-11.408 7.477-22.29 9.723-27.309 4.704-5.02-5.02-2.773-15.901 4.704-27.309C.418 19.092-1.828 8.21 3.19 3.191zm39.735 14.883a101.595 101.595 0 015.932 6.6c4.844-7.477 6.599-13.9 3.966-16.498-2.597-2.633-9.02-.878-16.497 3.966a101.595 101.595 0 016.599 5.932zM18.074 42.926a101.595 101.595 0 01-5.932-6.6c-4.844 7.477-6.599 13.9-3.966 16.498 2.597 2.633 9.02.878 16.497-3.966a101.595 101.595 0 01-6.599-5.932zM8.176 8.176c-2.633 2.597-.878 9.02 3.966 16.497a101.595 101.595 0 015.932-6.599 101.595 101.595 0 016.6-5.932c-7.477-4.844-13.9-6.599-16.498-3.966zM23.059 37.94a98.638 98.638 0 007.441 6.705 98.73 98.73 0 007.441-6.705 98.638 98.638 0 006.705-7.441 98.638 98.638 0 00-6.705-7.441 98.638 98.638 0 00-7.441-6.705 98.638 98.638 0 00-7.441 6.705 98.638 98.638 0 00-6.705 7.441 98.73 98.73 0 006.705 7.441zm29.765 14.883c2.633-2.597.878-9.02-3.966-16.497a101.595 101.595 0 01-5.932 6.599 101.595 101.595 0 01-6.6 5.932c7.477 4.844 13.9 6.599 16.498 3.966z" fill="#fff"/></svg>