<svg width="63" height="63" fill="none" xmlns="http://www.w3.org/2000/svg"><path d="M13.786 17.783l-6.289-6.321 4.163-4.205 6.259 6.352-4.133 4.174zM34.452.19v8.946h-5.904V.19h5.904zm21.05 11.272l-6.288 6.321-4.133-4.174 6.259-6.352 4.163 4.205zM9.358 28.518v5.964H.5v-5.964h8.857zm44.286 0H62.5v5.964h-8.857v-5.964zM13.786 56.846h35.428a5.88 5.88 0 014.176 1.747 5.995 5.995 0 011.729 4.217H7.881a5.99 5.99 0 011.73-4.217 5.875 5.875 0 014.175-1.747zM31.5 12.118c4.698 0 9.204 1.885 12.526 5.24a17.983 17.983 0 015.188 12.651v23.855H13.786V30.01c0-4.745 1.866-9.296 5.188-12.651a17.626 17.626 0 0112.526-5.24z" fill="#03D6F3"/></svg>