<svg width="17" height="27" viewBox="0 0 17 27" fill="none" xmlns="http://www.w3.org/2000/svg">
<path d="M16.91 18.03C16.91 19.15 16.61 20.18 16.01 21.12C15.41 22.06 14.52 22.81 13.34 23.37C12.16 23.93 10.74 24.21 9.08 24.21V26.61H7.79V24.15C5.61 23.97 3.83 23.31 2.45 22.17C1.09 21.03 0.34 19.51 0.2 17.61H5.66C5.72 18.25 5.93 18.79 6.29 19.23C6.67 19.67 7.17 19.97 7.79 20.13V15.36C7.45 15.26 7.23 15.19 7.13 15.15C5.67 14.73 4.47 14.31 3.53 13.89C2.61 13.45 1.81 12.81 1.13 11.97C0.47 11.11 0.14 9.98 0.14 8.58C0.14 7.36 0.47 6.29 1.13 5.37C1.81 4.45 2.73 3.75 3.89 3.27C5.05 2.77 6.35 2.5 7.79 2.46V-3.57628e-07H9.08V2.49C11.28 2.63 13.03 3.26 14.33 4.38C15.63 5.48 16.36 6.94 16.52 8.76H10.97C10.89 8.16 10.69 7.67 10.37 7.29C10.05 6.91 9.62 6.65 9.08 6.51V11.19L10.01 11.49C11.47 11.95 12.65 12.4 13.55 12.84C14.47 13.26 15.26 13.89 15.92 14.73C16.58 15.57 16.91 16.67 16.91 18.03ZM5.63 8.37C5.63 8.91 5.81 9.37 6.17 9.75C6.55 10.11 7.09 10.44 7.79 10.74V6.39C7.11 6.43 6.58 6.62 6.2 6.96C5.82 7.3 5.63 7.77 5.63 8.37ZM9.08 20.28C9.8 20.26 10.37 20.06 10.79 19.68C11.21 19.28 11.42 18.77 11.42 18.15C11.42 17.59 11.22 17.13 10.82 16.77C10.42 16.39 9.84 16.06 9.08 15.78V20.28Z" fill="#30D7BA"/>
</svg>
