<svg width="34" height="41" viewBox="0 0 34 41" fill="none" xmlns="http://www.w3.org/2000/svg">
<path d="M0.76 20.535C0.76 26.5483 2.11667 31.3517 4.83 34.945C7.54333 38.5017 11.6867 40.28 17.26 40.28C22.8333 40.28 26.9767 38.5017 29.69 34.945C32.4033 31.3517 33.76 26.5483 33.76 20.535C33.76 14.5583 32.4033 9.79167 29.69 6.235C26.9767 2.64167 22.8333 0.844999 17.26 0.844999C11.6867 0.844999 7.54333 2.62333 4.83 6.18C2.11667 9.73667 0.76 14.5217 0.76 20.535ZM21.715 20.535C21.715 23.1383 21.4217 25.155 20.835 26.585C20.2483 28.015 19.0567 28.73 17.26 28.73C15.4267 28.73 14.2167 28.015 13.63 26.585C13.0433 25.155 12.75 23.1383 12.75 20.535C12.75 17.9317 13.0433 15.9333 13.63 14.54C14.2167 13.11 15.4267 12.395 17.26 12.395C19.0567 12.395 20.2483 13.11 20.835 14.54C21.4217 15.9333 21.715 17.9317 21.715 20.535Z" fill="#30D7BA"/>
</svg>
